# xmcd CD database file generated by freedbAccess_ocx
#
# Track frame offsets:
#       150
#       66465
#       106754
#       143560
#       205967
#       264504
#       306493
#
# Disc length: 4777 seconds
#
# Revision: 0
# Processed by: cddbd v1.5.1PL2 Copyright (c) Steve Scherf et al.
# Submitted via: CDnGo 2.00
#
DISCID=6612a707
DTITLE=Alfred Döblin - Die beiden Freundinnen und ihr Giftmord
DYEAR=2002
DGENRE=A Cappella
TTITLE0=die beiden Freundinnen 01
TTITLE1=die beiden Freundinnen 02
TTITLE2=die beiden Freundinnen 03
TTITLE3=die beiden Freundinnen 04
TTITLE4=die beiden Freundinnen 05
TTITLE5=die beiden Freundinnen 06
TTITLE6=die beiden Freundinnen 07
EXTD=
EXTT0=
EXTT1=
EXTT2=
EXTT3=
EXTT4=
EXTT5=
EXTT6=
PLAYORDER=
